<svg width="61" height="60" viewBox="0 0 61 60" fill="none" xmlns="http://www.w3.org/2000/svg">
<rect x="2.24805" y="1.5" width="57" height="57" rx="13.5" fill="white" stroke="#58A9A5" stroke-width="3"/>
<path d="M30.748 30C28.6855 30 26.9199 29.2656 25.4512 27.7969C23.9824 26.3281 23.248 24.5625 23.248 22.5C23.248 20.4375 23.9824 18.6719 25.4512 17.2031C26.9199 15.7344 28.6855 15 30.748 15C32.8105 15 34.5762 15.7344 36.0449 17.2031C37.5137 18.6719 38.248 20.4375 38.248 22.5C38.248 24.5625 37.5137 26.3281 36.0449 27.7969C34.5762 29.2656 32.8105 30 30.748 30ZM15.748 45V39.75C15.748 38.6875 16.0218 37.7106 16.5693 36.8194C17.1155 35.9294 17.8418 35.25 18.748 34.7812C20.6855 33.8125 22.6543 33.0856 24.6543 32.6006C26.6543 32.1169 28.6855 31.875 30.748 31.875C32.8105 31.875 34.8418 32.1169 36.8418 32.6006C38.8418 33.0856 40.8105 33.8125 42.748 34.7812C43.6543 35.25 44.3805 35.9294 44.9268 36.8194C45.4743 37.7106 45.748 38.6875 45.748 39.75V45H15.748Z" fill="#58A9A5"/>
</svg>
